<svg xmlns="http://www.w3.org/2000/svg" width="48" height="48" viewBox="0 0 48 48" role="img" aria-labelledby="title desc">
  <title id="title">大圣舆情AI</title>
  <desc id="desc">大圣舆情AI 火焰悟空品牌标识</desc>
  <defs>
    <linearGradient id="crestGrad" x1="0%" y1="0%" x2="100%" y2="100%">
      <stop offset="0%" stop-color="#ffe08a"/>
      <stop offset="45%" stop-color="#ff8f3f"/>
      <stop offset="100%" stop-color="#b31217"/>
    </linearGradient>
    <linearGradient id="lineGrad" x1="0%" y1="0%" x2="100%" y2="100%">
      <stop offset="0%" stop-color="#ffe8a6"/>
      <stop offset="100%" stop-color="#ffcc4d"/>
    </linearGradient>
  </defs>

  <path d="M24 2.8 L42 12.4 V35.6 L24 45.2 L6 35.6 V12.4 Z" fill="#3f0b10" stroke="url(#lineGrad)" stroke-width="1.4"/>
  <path d="M24 6.8 C20.4 9.2 19.2 12.6 19.8 15.4 C16.6 14 13.8 16.2 13.8 19.6 C13.8 22.8 16 25 18.2 26 C15.6 29.4 16.4 33.8 19.8 36.8 C22 38.8 23.4 40.8 24 42.2 C24.6 40.8 26 38.8 28.2 36.8 C31.6 33.8 32.4 29.4 29.8 26 C32 25 34.2 22.8 34.2 19.6 C34.2 16.2 31.4 14 28.2 15.4 C28.8 12.6 27.6 9.2 24 6.8 Z" fill="url(#crestGrad)"/>
  <path d="M18.6 26.8 C19.6 24.2 21.2 22.8 24 22.8 C26.8 22.8 28.4 24.2 29.4 26.8 C30.4 29.4 29.2 32.8 26.8 34.6 C25.6 35.4 24.8 36.4 24 38 C23.2 36.4 22.4 35.4 21.2 34.6 C18.8 32.8 17.6 29.4 18.6 26.8 Z" fill="#fff4da"/>
  <ellipse cx="20.7" cy="25.7" rx="2.9" ry="1.6" fill="#8d1018" transform="rotate(-20 20.7 25.7)"/>
  <ellipse cx="27.3" cy="25.7" rx="2.9" ry="1.6" fill="#8d1018" transform="rotate(20 27.3 25.7)"/>
  <path d="M22.4 29.6 Q24 31 25.6 29.6" fill="none" stroke="#8d1018" stroke-width="1.6" stroke-linecap="round"/>
  <path d="M19.2 33.2 H28.8" stroke="#8d1018" stroke-width="1.6" stroke-linecap="round"/>
</svg>
